<svg width="179" height="137" viewBox="0 0 179 137" fill="none" xmlns="http://www.w3.org/2000/svg">
<g clip-path="url(#clip0_13_462)">
<path d="M179 0H-2V137H179V0Z" fill="#2E2D2D"/>
<path d="M125.986 112.557H106.869V73.7001H71.0411V112.557H51.9243V22.4798H71.0411V57.8041H106.869V22.4798H125.986V112.557Z" fill="#FFB300"/>
<path d="M78 51L47 84" stroke="#2E2D2D" stroke-width="5"/>
<path d="M101 18H117.814L116.825 123.275V132.331H110.891M110.891 132.331H107.923H101M110.891 132.331V111.955V18.2109" stroke="#2E2D2D" stroke-width="5"/>
<path d="M98.8853 45.7434C100.556 40.5125 100.999 35.7774 100.449 31.4979" stroke="white"/>
<path d="M86.0273 45.7434C87.6983 40.5125 88.1415 35.7774 87.5907 31.4979" stroke="white"/>
</g>
<defs>
<clipPath id="clip0_13_462">
<rect width="181" height="137" fill="white" transform="translate(-2)"/>
</clipPath>
</defs>
</svg>
